<svg width="120" height="14" viewBox="0 0 120 14" fill="none" xmlns="http://www.w3.org/2000/svg">
<path fill-rule="evenodd" clip-rule="evenodd" d="M48.3263 11.5044C48.5771 12.073 48.2869 12.7266 47.6654 12.9668C47.5175 13.0265 47.3532 13.0514 47.1917 13.0514C46.6912 13.0514 46.2531 12.7828 46.0472 12.365L45.0823 10.2221H39.6479L38.6825 12.366C38.4273 12.9181 37.6804 13.1937 37.0726 12.9664C36.4483 12.7266 36.1482 12.069 36.4072 11.5039C36.4072 11.5039 40.9107 1.58878 41.202 0.963515C41.4934 0.338254 41.9982 0.195995 42.3646 0.195995C42.8826 0.195995 43.3076 0.463609 43.5266 0.967002L48.3263 11.5044ZM44.0769 7.99361L42.3651 4.23806L40.6621 7.99361H44.0769ZM25.0533 6.74308C25.0533 9.97833 23.1038 13.2345 18.7515 13.2345H18.7241C16.6651 13.2345 14.9664 12.5764 13.8231 11.3263C12.7815 10.1813 12.2268 8.59052 12.2317 6.69832C12.2449 2.63437 14.8011 9.58645e-06 18.7482 9.58645e-06C22.698 0.0164246 25.0533 2.53339 25.0533 6.74308ZM22.4554 6.74308C22.4554 3.84062 21.2168 2.37073 18.7591 2.35879C15.3459 2.35879 14.8361 5.09114 14.8181 6.70628C14.8137 8.0344 15.1576 9.10983 15.8108 9.81617C16.4625 10.5146 17.4427 10.8797 18.7296 10.8836H18.7515C21.4769 10.8836 22.4554 8.74472 22.4554 6.74308ZM35.5672 0.21191H27.2382C26.5449 0.21191 25.9869 0.722266 25.9869 1.35598C25.9869 1.98174 26.5455 2.49707 27.2382 2.49707H30.1295V11.8864C30.1295 12.5152 30.6925 13.0315 31.3945 13.0315C31.7384 13.0315 32.0516 12.9091 32.2827 12.6943C32.5335 12.4784 32.6589 12.1869 32.6589 11.8864L32.6534 2.49707H35.5667C36.2605 2.49707 36.8229 1.98174 36.8229 1.35648C36.8229 0.722765 36.2599 0.21191 35.5672 0.21191ZM10.3901 0.357657C9.78614 0.0452748 9.0184 0.231806 8.66958 0.780464L5.50992 5.75271L2.35135 0.779966C2.00253 0.227826 1.22877 0.0452737 0.630242 0.357158C0.0262378 0.674515 -0.179112 1.38085 0.170258 1.92404L4.24989 8.33832V11.9233C4.24989 12.5525 4.81665 13.0683 5.50499 13.0683C6.20209 13.0683 6.76995 12.552 6.76995 11.9228V8.33832L10.8408 1.92454C11.1995 1.38135 10.9941 0.675013 10.3901 0.357657Z" fill="white"/>
<path fill-rule="evenodd" clip-rule="evenodd" d="M80.3251 6.74307C80.3251 9.97832 78.3757 13.2345 74.0233 13.2345H73.9959C71.937 13.2345 70.2383 12.5764 69.0949 11.3263C68.0534 10.1813 67.4986 8.59051 67.5036 6.69831C67.5167 2.63436 70.0729 0 74.02 0C77.9699 0.016415 80.3251 2.53338 80.3251 6.74307ZM77.7273 6.74307C77.7273 3.84061 76.4886 2.37072 74.031 2.35878C70.6178 2.35878 70.108 5.09113 70.0899 6.70627C70.0855 8.03439 70.4294 9.10982 71.0827 9.81616C71.7343 10.5145 72.7146 10.8797 74.0014 10.8836H74.0233C76.7487 10.8836 77.7273 8.74471 77.7273 6.74307Z" fill="white"/>
<path fill-rule="evenodd" clip-rule="evenodd" d="M119.907 11.6426C120.166 12.228 119.867 12.9009 119.227 13.1482C119.075 13.2097 118.906 13.2353 118.739 13.2353C118.224 13.2353 117.773 12.9587 117.561 12.5286L116.567 10.3223H110.972L109.979 12.5296C109.716 13.098 108.947 13.3818 108.321 13.1477C107.678 12.9009 107.369 12.2239 107.636 11.6421C107.636 11.6421 112.273 1.43394 112.573 0.7902C112.872 0.146462 113.392 0 113.769 0C114.303 0 114.74 0.275521 114.966 0.79379L119.907 11.6426ZM115.532 8.02804L113.77 4.16151L112.017 8.02804H115.532Z" fill="white"/>
<path d="M105.96 12.0247C105.96 12.3446 105.828 12.6276 105.563 12.8736C105.303 13.1147 105 13.2353 104.656 13.2353C104.327 13.2353 104.03 13.1123 103.765 12.8662L98.3953 7.01977C98.1301 6.77372 97.9975 6.50061 97.9975 6.20043C97.9975 5.88056 98.1301 5.59761 98.3953 5.35156L103.765 0.369073C104.03 0.123024 104.327 0 104.656 0C105 0 105.303 0.123024 105.563 0.369073C105.828 0.610201 105.96 0.890696 105.96 1.21056C105.96 1.51566 105.828 1.79123 105.563 2.03728L101.092 6.18566L105.563 11.198C105.828 11.4441 105.96 11.7196 105.96 12.0247ZM97.9816 12.0321C97.9816 12.3766 97.8623 12.6595 97.6236 12.881C97.385 13.1024 97.0801 13.2131 96.7088 13.2131C96.3376 13.2131 96.0327 13.1024 95.794 12.881C95.5554 12.6595 95.436 12.3766 95.436 12.0321V1.20318C95.436 0.85871 95.5554 0.575753 95.794 0.35431C96.0327 0.132866 96.3376 0.0221441 96.7088 0.0221441C97.0801 0.0221441 97.385 0.132866 97.6236 0.35431C97.8623 0.575753 97.9816 0.85871 97.9816 1.20318V12.0321Z" fill="white"/>
<path d="M93.837 11.6426C94.0952 12.228 93.7964 12.9009 93.1565 13.1482C93.0043 13.2097 92.8352 13.2353 92.6689 13.2353C92.1536 13.2353 91.7025 12.9587 91.4905 12.5286L89.4621 8.02804L87.6997 4.16151L83.9082 12.5296C83.6455 13.098 82.8765 13.3818 82.2507 13.1477C81.608 12.9009 81.299 12.2239 81.5657 11.6421C81.5657 11.6421 86.2023 1.43394 86.5022 0.7902C86.8021 0.146462 87.3219 0 87.6991 0C88.2324 0 88.6699 0.275521 88.8954 0.79379L93.837 11.6426Z" fill="white"/>
<path d="M64.9714 0H56.2449C55.5185 0 54.9339 0.53471 54.9339 1.19867C54.9339 1.85429 55.5191 2.39421 56.2449 2.39421H64.9708C65.6977 2.39421 66.2869 1.85429 66.2869 1.19919C66.2869 0.535232 65.6971 0 64.9714 0Z" fill="white"/>
<path d="M54.934 1.23155L54.9339 12.058C54.9339 12.7045 55.5127 13.2353 56.2345 13.2353C56.588 13.2353 56.9101 13.1095 57.1476 12.8886C57.4055 12.6666 57.5344 12.3669 57.5344 12.058L57.5288 1.23155H54.934Z" fill="white"/>
<path d="M63.6929 1.23155L63.6929 12.058C63.6929 12.7045 64.2716 13.2353 64.9934 13.2353C65.347 13.2353 65.669 13.1095 65.9066 12.8886C66.1644 12.6666 66.2934 12.3669 66.2934 12.058L66.2877 1.23155H63.6929Z" fill="white"/>
</svg>
