<svg width="135" height="41" viewBox="0 0 135 41" fill="none" xmlns="http://www.w3.org/2000/svg">
<path fill-rule="evenodd" clip-rule="evenodd" d="M134.749 35.6404C135.448 37.4018 134.639 39.4266 132.906 40.1709C132.494 40.3558 132.036 40.4329 131.585 40.4329C130.19 40.4329 128.968 39.6007 128.394 38.3063L125.704 31.6677H110.551L107.859 38.3094C107.148 40.0199 105.065 40.8736 103.37 40.1694C101.629 39.4266 100.793 37.3894 101.515 35.6388L114.884 2.98492C115.697 1.04787 117.104 0.607157 118.126 0.607157C119.57 0.607157 120.755 1.43622 121.366 2.99572L134.749 35.6404ZM122.9 24.764L118.127 13.1294L113.379 24.764H122.9ZM69.8564 20.8899C69.8564 30.9126 64.4207 41 52.285 41H52.2087C46.4676 41 41.7312 38.9612 38.543 35.0887C35.6389 31.5413 34.0922 26.6132 34.1059 20.7512C34.1426 8.16117 41.2701 0 52.2758 0C63.2893 0.0508532 69.8564 7.84833 69.8564 20.8899ZM62.6129 20.8899C62.6129 11.8981 59.1591 7.34443 52.3064 7.30744C42.7893 7.30744 41.3678 15.7722 41.3174 20.7758C41.3052 24.8903 42.2641 28.222 44.0856 30.4102C45.9026 32.5738 48.6358 33.7049 52.2239 33.7172H52.285C59.8843 33.7172 62.6129 27.0909 62.6129 20.8899ZM99.1726 0.656462H75.9487C74.0157 0.656462 72.4598 2.23753 72.4598 4.20077C72.4598 6.13936 74.0172 7.73584 75.9487 7.73584H84.0106V36.8239C84.0106 38.7717 85.5803 40.3713 87.5377 40.3713C88.4966 40.3713 89.37 39.9922 90.0144 39.3264C90.7137 38.6576 91.0633 37.7546 91.0633 36.8239L91.048 7.73584H99.1711C101.106 7.73584 102.674 6.13936 102.674 4.20232C102.674 2.23908 101.104 0.656462 99.1726 0.656462ZM28.971 1.10798C27.2868 0.140231 25.1461 0.718099 24.1735 2.41783L15.3634 17.8217L6.55632 2.41628C5.58369 0.705768 3.4262 0.140227 1.75731 1.10644C0.0731593 2.0896 -0.499421 4.27782 0.474732 5.9606L11.85 25.8319V36.9379C11.85 38.8873 13.4304 40.4853 15.3496 40.4853C17.2934 40.4853 18.8768 38.8857 18.8768 36.9364V25.8319L30.2276 5.96214C31.2277 4.27936 30.6552 2.09114 28.971 1.10798Z" fill="white"/>
</svg>
