<svg width="166" height="157" viewBox="0 0 166 157" fill="none" xmlns="http://www.w3.org/2000/svg">
<path d="M2.86592 72.9079L2.70953 75.1564L7.34805 77.4718L2.38023 79.891L2.20441 82.4189L9.49389 78.7017L9.77844 78.8478C10.049 78.9929 10.1442 79.2381 10.119 79.6012C10.0996 79.8806 10.034 80.0163 9.83396 80.2691L11.679 81.1833C11.9069 80.9325 12.1751 80.3056 12.2149 79.733C12.3091 78.3783 11.5434 77.483 10.0956 76.7086L2.86592 72.9079Z" fill="white"/>
<path d="M13.6986 68.9335C14.0528 67.2197 13.3266 65.2684 11.5579 64.903C10.4611 64.6763 9.53411 64.9423 8.94251 66.0066L8.90138 65.9981C8.50401 65.0153 7.79334 64.5111 7.10782 64.3695C5.35289 64.0069 4.14909 65.059 3.79498 66.7728C3.5032 68.185 3.9366 69.5469 4.7003 70.348L6.44164 69.3926C5.83352 68.738 5.66174 68.1164 5.79205 67.4857C5.91953 66.8687 6.2981 66.4895 6.90136 66.6141C7.50461 66.7388 7.66551 67.3438 7.5352 67.9745L7.36523 68.7971L9.42179 69.2221L9.60309 68.3446C9.81839 67.3026 10.3232 66.9352 10.8853 67.0513C11.6668 67.2128 11.7441 68.015 11.6223 68.6045C11.4608 69.386 10.7589 70.0845 10.0121 70.5163L11.2601 72.0179C12.1327 71.6692 13.2964 70.8804 13.6986 68.9335Z" fill="white"/>
<path d="M16.7532 57.6753L17.5164 55.5694L8.30287 52.2302L7.53962 54.3361L11.0671 55.6146L9.85066 58.9709L6.32318 57.6925L5.55993 59.7984L14.7735 63.1377L15.5367 61.0317L11.825 59.6865L13.0414 56.3301L16.7532 57.6753Z" fill="white"/>
<path d="M18.2488 53.5499L19.3375 51.5762L17.9277 49.8712L19.8008 46.4756L21.9951 46.7586L23.1514 44.6624L12.6026 43.4961L11.6356 45.2491L18.2488 53.5499ZM14.6017 45.814L17.5563 46.1967L16.4947 48.1213L14.6017 45.814Z" fill="white"/>
<path d="M17.2044 39.6961L18.9684 37.3441L25.1284 41.964L26.4724 40.172L20.3124 35.5521L22.0764 33.2001L20.3964 31.9401L15.5244 38.4361L17.2044 39.6961Z" fill="white"/>
<path d="M28.5553 30.5371C29.1351 29.9488 29.8558 29.6762 30.5239 30.3347C31.2319 31.0324 31.0489 31.7366 30.4101 32.3847C30.2627 32.5343 30.1052 32.6542 29.9083 32.8141L28.1335 31.0648C28.3001 30.8359 28.4276 30.6667 28.5553 30.5371ZM24.4441 27.4287L22.8718 29.0241L29.8516 35.9032C30.2545 35.4944 31.0115 34.7662 31.7191 34.0483C33.6354 32.1039 33.6503 30.0743 32.1547 28.6003C30.7288 27.1949 28.9858 27.1086 27.1972 28.9234C27.0498 29.0729 26.8436 29.3021 26.6278 29.5809L24.4441 27.4287Z" fill="white"/>
<path d="M44.9401 23.1672L46.8121 21.9371L41.4306 13.747L34.82 18.0906L40.2015 26.2808L42.0735 25.0507L37.8452 18.6156L40.7118 16.7321L44.9401 23.1672Z" fill="white"/>
<path d="M47.1742 15.9427C48.4225 18.8043 51.2409 19.6979 53.9741 18.5056C56.7074 17.3132 57.908 14.4984 56.7213 11.7779C55.473 8.91637 52.6546 8.02274 49.9214 9.21506C47.0598 10.4634 46.0378 13.3377 47.1742 15.9427ZM49.3556 14.9911C48.6391 13.3485 49.2725 11.7892 50.761 11.1399C52.2111 10.5073 53.8233 11.087 54.5398 12.7296C55.2004 14.2438 54.8411 15.8362 53.1345 16.5807C51.6973 17.2077 50.0274 16.5309 49.3556 14.9911Z" fill="white"/>
<path d="M60.4819 17.3115L62.5207 16.8085L62.1184 15.1774L68.0176 13.7222L68.4199 15.3533L70.4588 14.8504L69.5535 11.1804L68.2622 11.4989L66.418 4.023L60.2062 5.55532L60.5941 7.4784C61.226 10.6246 60.8559 12.8068 60.596 13.39L59.5766 13.6415L60.4819 17.3115ZM63.0622 8.7153L62.816 7.07449L64.7462 6.59837L66.0874 12.0354L62.9883 12.7999C63.2106 12.298 63.3184 10.3969 63.0622 8.7153Z" fill="white"/>
<path d="M74.5396 12.6901L74.2189 9.37354C74.5713 9.38166 75.1009 9.33045 75.3099 9.31024C77.5674 9.09195 78.7708 7.42839 78.6024 5.68652C78.4394 4.00038 77.3143 2.54792 74.3462 2.83494C73.5937 2.9077 71.9102 3.09862 71.3668 3.15117L72.31 12.9057L74.5396 12.6901ZM74.7713 4.90363C75.5656 4.82682 76.1486 5.03768 76.2321 5.90165C76.3237 6.84923 75.6234 7.17013 75.0381 7.22673C74.7176 7.25772 74.3386 7.26623 74.0141 7.25542L73.7985 5.02582C74.257 4.96742 74.4786 4.93192 74.7713 4.90363Z" fill="white"/>
<path d="M81.5557 7.12102C81.3631 10.2371 83.4648 12.3167 86.4412 12.5007C89.4175 12.6846 91.7688 10.726 91.9519 7.76361C92.1445 4.64756 90.0428 2.56794 87.0665 2.38397C83.9504 2.19137 81.7311 4.28444 81.5557 7.12102ZM83.9312 7.26785C84.0418 5.47927 85.316 4.37978 86.9369 4.47997C88.5159 4.57757 89.687 5.8282 89.5764 7.61678C89.4745 9.26564 88.4292 10.5195 86.5707 10.4047C85.0057 10.3079 83.8276 8.94465 83.9312 7.26785Z" fill="white"/>
<path d="M94.2944 13.0952C94.8552 13.2178 95.6882 13.4715 96.9465 13.7466C99.34 14.2698 100.93 13.3562 101.366 11.3593C101.761 9.55393 100.754 8.13002 98.9073 7.72643C98.6064 7.66066 98.067 7.57142 97.7952 7.56933L98.127 6.05117L101.71 6.83443L102.159 4.78287L96.3871 3.52128L94.2944 13.0952ZM98.2811 9.73913C99.0743 9.91252 99.2646 10.4843 99.142 11.0451C99.0254 11.5785 98.6396 11.9671 97.7369 11.7698C97.4907 11.716 97.2778 11.6408 96.9312 11.522L97.3468 9.62089C97.687 9.63793 98.0075 9.67934 98.2811 9.73913Z" fill="white"/>
<path d="M108.898 17.2597L110.992 18.0545L114.47 8.89212L112.375 8.09733L111.044 11.6052L107.706 10.3385L109.038 6.83064L106.943 6.03585L103.466 15.1982L105.56 15.993L106.961 12.3019L110.299 13.5686L108.898 17.2597Z" fill="white"/>
<path d="M114.04 19.5063L119.25 22.3802L120.265 20.5414L117.016 18.7494L117.875 17.1926L120.633 18.7141L121.648 16.8753L118.889 15.3538L119.721 13.846L122.847 15.5704L123.861 13.7316L118.774 10.9253L114.04 19.5063Z" fill="white"/>
<path d="M121.417 23.7446L126.241 27.2271L127.471 25.5243L124.462 23.3529L125.503 21.9112L128.057 23.7549L129.286 22.0522L126.732 20.2085L127.74 18.8123L130.635 20.9018L131.864 19.199L127.153 15.7985L121.417 23.7446Z" fill="white"/>
</svg>
