<svg width="166" height="124" viewBox="0 0 166 124" fill="none" xmlns="http://www.w3.org/2000/svg">
<path d="M162.349 50.3853L162.505 48.1367L157.867 45.8213L162.835 43.4021L163.01 40.8743L155.721 44.5914L155.436 44.4453C155.166 44.3002 155.071 44.055 155.096 43.6919C155.115 43.4126 155.181 43.2768 155.381 43.0241L153.536 42.1098C153.308 42.3606 153.04 42.9875 153 43.5602C152.906 44.9149 153.671 45.8102 155.119 46.5845L162.349 50.3853Z" fill="white"/>
<path d="M151.516 54.3596C151.162 56.0734 151.888 58.0247 153.657 58.3902C154.754 58.6168 155.681 58.3509 156.272 57.2866L156.313 57.2951C156.711 58.2778 157.422 58.782 158.107 58.9237C159.862 59.2863 161.066 58.2341 161.42 56.5203C161.712 55.1081 161.278 53.7462 160.515 52.9451L158.773 53.9006C159.381 54.5552 159.553 55.1768 159.423 55.8074C159.295 56.4244 158.917 56.8037 158.313 56.679C157.71 56.5544 157.549 55.9493 157.68 55.3186L157.85 54.496L155.793 54.0711L155.612 54.9485C155.396 55.9905 154.892 56.358 154.33 56.2418C153.548 56.0804 153.471 55.2781 153.593 54.6886C153.754 53.9071 154.456 53.2087 155.203 52.7768L153.955 51.2753C153.082 51.6239 151.918 52.4128 151.516 54.3596Z" fill="white"/>
<path d="M148.462 65.6178L147.698 67.7237L156.912 71.063L157.675 68.957L154.148 67.6786L155.364 64.3222L158.892 65.6007L159.655 63.4947L150.441 60.1555L149.678 62.2614L153.39 63.6067L152.173 66.963L148.462 65.6178Z" fill="white"/>
<path d="M146.966 69.7433L145.877 71.7169L147.287 73.4219L145.414 76.8176L143.22 76.5345L142.063 78.6307L152.612 79.797L153.579 78.0441L146.966 69.7433ZM150.613 77.4791L147.659 77.0964L148.72 75.1718L150.613 77.4791Z" fill="white"/>
<path d="M148.01 83.5971L146.246 85.9491L140.086 81.3291L138.742 83.1211L144.902 87.7411L143.138 90.0931L144.818 91.3531L149.69 84.857L148.01 83.5971Z" fill="white"/>
<path d="M136.66 92.7561C136.08 93.3444 135.359 93.6169 134.691 92.9585C133.983 92.2607 134.166 91.5565 134.805 90.9084C134.952 90.7588 135.11 90.6389 135.307 90.4791L137.081 92.2283C136.915 92.4572 136.787 92.6265 136.66 92.7561ZM140.771 95.8644L142.343 94.269L135.363 87.3899C134.96 87.7987 134.203 88.5269 133.496 89.2449C131.579 91.1892 131.565 93.2188 133.06 94.6929C134.486 96.0982 136.229 96.1845 138.018 94.3698C138.165 94.2202 138.371 93.991 138.587 93.7122L140.771 95.8644Z" fill="white"/>
<path d="M120.275 100.126L118.403 101.356L123.784 109.546L130.395 105.203L125.013 97.0123L123.141 98.2424L127.37 104.678L124.503 106.561L120.275 100.126Z" fill="white"/>
<path d="M118.041 107.35C116.792 104.489 113.974 103.595 111.241 104.788C108.507 105.98 107.307 108.795 108.494 111.515C109.742 114.377 112.56 115.27 115.293 114.078C118.155 112.83 119.177 109.955 118.041 107.35ZM115.859 108.302C116.576 109.945 115.942 111.504 114.454 112.153C113.004 112.786 111.392 112.206 110.675 110.564C110.014 109.049 110.374 107.457 112.08 106.712C113.518 106.085 115.187 106.762 115.859 108.302Z" fill="white"/>
<path d="M104.733 105.982L102.694 106.485L103.096 108.116L97.1973 109.571L96.7949 107.94L94.7561 108.443L95.6614 112.113L96.9527 111.794L98.7968 119.27L105.009 117.738L104.621 115.815C103.989 112.669 104.359 110.486 104.619 109.903L105.638 109.652L104.733 105.982ZM102.153 114.578L102.399 116.219L100.469 116.695L99.1275 111.258L102.227 110.493C102.004 110.995 101.896 112.896 102.153 114.578Z" fill="white"/>
<path d="M90.6752 110.603L90.9959 113.92C90.6435 113.911 90.114 113.963 89.905 113.983C87.6475 114.201 86.444 115.865 86.6124 117.607C86.7755 119.293 87.9005 120.745 90.8687 120.458C91.6212 120.385 93.3046 120.195 93.8481 120.142L92.9048 110.387L90.6752 110.603ZM90.4436 118.39C89.6493 118.466 89.0663 118.255 88.9827 117.391C88.8911 116.444 89.5915 116.123 90.1768 116.066C90.4973 116.035 90.8762 116.027 91.2007 116.038L91.4163 118.267C90.9578 118.326 90.7362 118.361 90.4436 118.39Z" fill="white"/>
<path d="M83.6591 116.172C83.8517 113.056 81.75 110.976 78.7737 110.792C75.7974 110.608 73.4461 112.567 73.263 115.53C73.0703 118.646 75.1721 120.725 78.1484 120.909C81.2644 121.102 83.4838 119.009 83.6591 116.172ZM81.2836 116.025C81.1731 117.814 79.8988 118.913 78.2779 118.813C76.6989 118.716 75.5279 117.465 75.6384 115.676C75.7403 114.027 76.7857 112.774 78.6441 112.888C80.2092 112.985 81.3873 114.348 81.2836 116.025Z" fill="white"/>
<path d="M70.9204 110.198C70.3596 110.075 69.5266 109.822 68.2683 109.547C65.8748 109.023 64.2851 109.937 63.8486 111.934C63.454 113.739 64.4611 115.163 66.3076 115.567C66.6084 115.632 67.1478 115.722 67.4197 115.724L67.0878 117.242L63.5044 116.459L63.056 118.51L68.8277 119.772L70.9204 110.198ZM66.9338 113.554C66.1405 113.381 65.9502 112.809 66.0728 112.248C66.1894 111.715 66.5753 111.326 67.478 111.523C67.7241 111.577 67.937 111.652 68.2836 111.771L67.8681 113.672C67.5279 113.655 67.2073 113.614 66.9338 113.554Z" fill="white"/>
<path d="M56.3168 106.033L54.2225 105.239L50.7453 114.401L52.8395 115.196L54.1708 111.688L57.5085 112.955L56.1773 116.462L58.2715 117.257L61.7487 108.095L59.6545 107.3L58.2537 110.991L54.9159 109.725L56.3168 106.033Z" fill="white"/>
<path d="M51.1744 103.787L45.9645 100.913L44.9501 102.752L48.1987 104.544L47.3399 106.101L44.5817 104.579L43.5673 106.418L46.3255 107.939L45.4938 109.447L42.3678 107.723L41.3535 109.562L46.4408 112.368L51.1744 103.787Z" fill="white"/>
<path d="M43.7978 99.5486L38.9734 96.0661L37.7443 97.7688L40.7524 99.9402L39.7118 101.382L37.1577 99.5382L35.9286 101.241L38.4826 103.085L37.4748 104.481L34.5801 102.391L33.351 104.094L38.0619 107.495L43.7978 99.5486Z" fill="white"/>
</svg>
