<svg width="36" height="30" viewBox="0 0 36 30" fill="none" xmlns="http://www.w3.org/2000/svg">
<path d="M18 0C15.199 0 12.3829 1.07762 10.2473 3.23191C8.6591 4.83401 7.69629 6.82145 7.28804 8.89392C3.14378 9.70492 0 13.356 0 17.7632C0 22.7633 4.04335 26.8421 9 26.8421H13.3043C13.4599 26.8443 13.6143 26.8153 13.7587 26.7568C13.9031 26.6983 14.0344 26.6114 14.1452 26.5012C14.256 26.3911 14.344 26.2598 14.404 26.115C14.4641 25.9702 14.495 25.8148 14.495 25.6579C14.495 25.501 14.4641 25.3456 14.404 25.2008C14.344 25.056 14.256 24.9247 14.1452 24.8146C14.0344 24.7044 13.9031 24.6175 13.7587 24.559C13.6143 24.5005 13.4599 24.4715 13.3043 24.4737H9C5.31227 24.4737 2.34783 21.4832 2.34783 17.7632C2.34783 14.25 4.99637 11.388 8.38859 11.0773C8.65462 11.0512 8.90385 10.9342 9.09507 10.7458C9.28628 10.5574 9.40804 10.3088 9.44022 10.0411C9.65622 8.16411 10.4796 6.34051 11.9103 4.8972C13.5951 3.19768 15.7937 2.36842 18 2.36842C20.2063 2.36842 22.391 3.19592 24.0774 4.8972C26.0263 6.86312 26.851 9.53409 26.5476 12.0888C26.5268 12.2552 26.5413 12.4242 26.5902 12.5846C26.639 12.7449 26.7211 12.893 26.8309 13.0189C26.9407 13.1449 27.0758 13.2459 27.2272 13.3152C27.3787 13.3845 27.543 13.4206 27.7092 13.4211H28.1739C31.2292 13.4211 33.6522 15.8653 33.6522 18.9474C33.6522 22.0294 31.2292 24.4737 28.1739 24.4737H22.6957C22.5401 24.4715 22.3857 24.5005 22.2413 24.559C22.0969 24.6175 21.9656 24.7044 21.8548 24.8146C21.744 24.9247 21.656 25.056 21.596 25.2008C21.5359 25.3456 21.505 25.501 21.505 25.6579C21.505 25.8148 21.5359 25.9702 21.596 26.115C21.656 26.2598 21.744 26.3911 21.8548 26.5012C21.9656 26.6114 22.0969 26.6983 22.2413 26.7568C22.3857 26.8153 22.5401 26.8443 22.6957 26.8421H28.1739C32.4893 26.8421 36 23.3006 36 18.9474C36 14.8389 32.8624 11.4943 28.8832 11.1266C28.9015 8.26913 27.8954 5.40572 25.7405 3.23191C23.6068 1.07938 20.801 0 18 0ZM18 14.2105C17.6086 14.2105 17.4017 14.3375 17.2052 14.5189L12.9008 18.4663C12.4038 18.9316 12.4125 19.6867 12.8274 20.1439C13.2424 20.601 14.0352 20.6341 14.4905 20.2179L16.8261 18.0715V28.8158C16.8261 29.4698 17.3516 30 18 30C18.6485 30 19.1739 29.4698 19.1739 28.8158V18.0715L21.5095 20.2179C21.9648 20.6341 22.7337 20.5777 23.1726 20.1439C23.6351 19.6867 23.5503 18.887 23.0992 18.4663L18.7948 14.5189C18.5623 14.3041 18.3914 14.2105 18 14.2105Z" fill="white"/>
</svg>
